<?xml version="1.0" encoding="utf-8"?>
<!-- Generator: Adobe Illustrator 21.0.2, SVG Export Plug-In . SVG Version: 6.00 Build 0)  -->
<svg version="1.1" id="Layer_1" xmlns="http://www.w3.org/2000/svg" xmlns:xlink="http://www.w3.org/1999/xlink" x="0px" y="0px"
	 width="186px" height="54px" viewBox="0 0 186 54" style="enable-background:new 0 0 186 54;" xml:space="preserve">
<style type="text/css">
	.st0{fill:#422C30;}
</style>
<g>
	<path class="st0" d="M67.4,21.2c0,5.2-3.1,7.5-6.9,7.5c-3.8,0-6.9-2.3-6.9-7.5c0-5,3.1-7.5,6.9-7.5C64.3,13.8,67.4,16.2,67.4,21.2
		 M64.7,21.2c0-4.6-1.7-6.5-4.2-6.5c-2.5,0-4.2,1.9-4.2,6.5c0,4.7,1.7,6.5,4.2,6.5C63,27.7,64.7,26,64.7,21.2"/>
	<path class="st0" d="M79.2,18.1c0,4-4.3,4-6.6,4v6.3h-2.5V16.1c0-0.8-0.5-1.5-1.3-1.7c0,0,0,0-0.1,0l-0.4-0.1v-0.2h4.2
		C74.9,14.1,79.2,14.1,79.2,18.1 M76.7,18.1c0-3.1-2.7-3-2.7-3l-1.3,0v6H74C74.7,21.1,76.7,21.1,76.7,18.1"/>
	<path class="st0" d="M93.4,14.1v9.7c0,0.9-0.3,4.9-5.7,4.9c0,0-5.8,0.3-5.8-4.9v-7.7c0-0.8-0.5-1.5-1.3-1.7c0,0,0,0-0.1,0l-0.4-0.1
		v-0.2h4.3v9.7c0,4,3.5,3.9,3.5,3.9c1.1,0,4.4-0.5,4.4-3.9v-9.7H93.4z"/>
	<path class="st0" d="M105,22.9c0.3,0.5,0.4,1.1,0.4,1.7c0,1.2-0.5,2.2-1.5,3c-0.9,0.7-2,1.1-3.2,1.1c-0.4,0-0.8,0-1.1-0.1
		c-0.5-0.1-1-0.2-1.5-0.5c-0.5-0.2-1.1-0.7-1.6-1.5c-0.4-0.5-0.6-1.3-0.7-2.1h1c0.1,0.5,0.2,0.8,0.3,1.1c0.3,0.6,0.8,1,1.5,1.4
		c0.6,0.3,1.3,0.5,2,0.5c0.7,0,1.4-0.2,1.9-0.5c0.5-0.4,0.8-0.9,0.8-1.6c0-0.7-0.4-1.4-1.1-1.9c-0.5-0.4-1.3-0.8-2.4-1.4
		c-1.1-0.6-2-1.1-2.5-1.5c-1.1-0.8-1.6-1.9-1.6-3c0-1.1,0.5-2.1,1.3-2.8c0.8-0.7,1.9-1,3-1h0c1.3,0.1,2.3,0.3,2.8,0.8
		c0.5,0.4,0.9,0.9,1.2,1.5c0.2,0.4,0.3,0.9,0.4,1.3h-1.1c-0.3-0.9-0.7-1.6-1.2-1.9c-0.7-0.4-1.4-0.6-2.1-0.5c-0.6,0-1.2,0.2-1.6,0.6
		c-0.5,0.4-0.7,0.9-0.7,1.4c0,0.4,0.1,0.7,0.4,1.1c0.4,0.5,1.5,1.2,3.1,2c1.2,0.6,1.9,1,2.2,1.2C104,21.7,104.6,22.3,105,22.9"/>
	<path class="st0" d="M121.3,22.9c0.3,0.5,0.4,1.1,0.4,1.7c0,1.2-0.5,2.2-1.5,3c-0.9,0.7-2,1.1-3.2,1.1c-0.4,0-0.8,0-1.1-0.1
		c-0.5-0.1-1-0.2-1.5-0.5c-0.5-0.2-1.1-0.7-1.6-1.5c-0.4-0.5-0.6-1.3-0.7-2.1h1c0.1,0.5,0.2,0.8,0.3,1.1c0.3,0.6,0.8,1,1.5,1.4
		c0.6,0.3,1.3,0.5,2,0.5c0.7,0,1.4-0.2,1.9-0.5c0.5-0.4,0.8-0.9,0.8-1.6c0-0.7-0.4-1.4-1.1-1.9c-0.5-0.4-1.3-0.8-2.4-1.4
		c-1.1-0.6-2-1.1-2.5-1.5c-1.1-0.8-1.6-1.9-1.6-3c0-1.1,0.5-2.1,1.3-2.8c0.8-0.7,1.9-1,3-1h0c1.3,0.1,2.3,0.3,2.8,0.8
		c0.5,0.4,0.9,0.9,1.2,1.5c0.2,0.4,0.3,0.9,0.4,1.3h-1.1c-0.3-0.9-0.7-1.6-1.2-1.9c-0.7-0.4-1.4-0.6-2.1-0.5c-0.6,0-1.2,0.2-1.6,0.6
		c-0.5,0.4-0.7,0.9-0.7,1.4c0,0.4,0.1,0.7,0.4,1.1c0.4,0.5,1.5,1.2,3.1,2c1.2,0.6,1.9,1,2.2,1.2C120.4,21.7,121,22.3,121.3,22.9"/>
	<path class="st0" d="M123.1,28.4l6.6-14.4l6.8,14.4h-2.8l-1.2-2.6h-6.8l-1.2,2.6H123.1z M126,24.9h5.9l-3-6.4L126,24.9z"/>
	<path class="st0" d="M141.6,28.4h-2.4V16.1c0-0.8-0.5-1.5-1.3-1.7c0,0,0,0-0.1,0l-0.4-0.1v-0.2h4.1V28.4z"/>
	<path class="st0" d="M154.7,21.5h2.2v4.2c-0.1,0.1-0.2,0.4-0.5,0.7c-0.8,0.9-2.4,2.2-5.3,2.2c-4.4,0-6.9-3.3-6.9-7.5
		c0-4.1,2.5-7.5,6.9-7.5c4.1,0,5.7,2.7,5.9,3l-0.5,0.9c-4.5-5.4-9.5-1.7-9.5,3.6c0,4.7,3.9,8.1,7.9,5.2V21.5z"/>
	<path class="st0" d="M172.5,21.2c0,5.2-3.1,7.5-6.9,7.5c-3.8,0-6.9-2.3-6.9-7.5c0-5,3.1-7.5,6.9-7.5
		C169.4,13.8,172.5,16.2,172.5,21.2 M169.8,21.2c0-4.6-1.7-6.5-4.2-6.5c-2.5,0-4.2,1.9-4.2,6.5c0,4.7,1.7,6.5,4.2,6.5
		C168.2,27.7,169.8,26,169.8,21.2"/>
	<path class="st0" d="M186,14.1v14.4l-9.6-9.6v9.6h-1.2v-11c0-0.9,0-1.8-0.6-2.5c-0.2-0.2-0.3-0.4-0.5-0.5c0,0-0.6-0.3-0.6-0.3v-0.2
		c1.1,0,2.1,0.4,2.9,1.2l8.4,8.4v-9.6H186z"/>
	<path class="st0" d="M56.8,37.7c1,0,1.6-0.6,1.6-1.4c0-0.8-0.7-1.4-1.6-1.4h-1.4v2.8H56.8z M56.8,34.3c1.3,0,2.2,0.8,2.2,1.9
		c0,1.2-0.9,2-2.3,2h-1.3v1.9h-0.6v-5.8H56.8z"/>
	<path class="st0" d="M63.1,37.5c0.9,0,1.6-0.5,1.6-1.3c0-0.8-0.7-1.3-1.6-1.3h-1.5v2.6H63.1z M61.5,38v2.1h-0.6v-5.8h2.1
		c1.3,0,2.2,0.7,2.2,1.8c0,0.9-0.6,1.6-1.6,1.8l1.8,2.1h-0.8L63,38H61.5z"/>
	<rect x="67.4" y="34.3" class="st0" width="0.6" height="5.8"/>
	<polygon class="st0" points="73.1,40.1 72.6,40.1 69.9,34.3 70.6,34.3 72.8,39.3 75.1,34.3 75.8,34.3 	"/>
	<path class="st0" d="M79.1,35l-1.3,2.9h2.5L79.1,35z M77.6,38.4l-0.7,1.7h-0.6l2.6-5.8h0.6l2.6,5.8h-0.6l-0.7-1.7H77.6z"/>
	<polygon class="st0" points="85.4,34.9 85.4,40.1 84.8,40.1 84.8,34.9 82.6,34.9 82.6,34.3 87.5,34.3 87.5,34.9 	"/>
	<polygon class="st0" points="89.9,37 93,37 93,37.5 89.9,37.5 89.9,39.6 93.3,39.6 93.3,40.1 89.3,40.1 89.3,34.3 93.3,34.3 
		93.3,34.9 89.9,34.9 	"/>
	<path class="st0" d="M100.7,39.6c1.4,0,2.4-1,2.4-2.4c0-1.3-1-2.3-2.4-2.3h-1.4v4.7H100.7z M100.7,34.3c1.8,0,3,1.2,3,2.8
		c0,1.7-1.2,2.9-3,2.9h-2v-5.8H100.7z"/>
	<rect x="105.9" y="34.3" class="st0" width="0.6" height="5.8"/>
	<polygon class="st0" points="113.8,40.1 113.3,40.1 109.6,35.4 109.6,40.1 109,40.1 109,34.3 109.5,34.3 113.2,39.1 113.2,34.3 
		113.8,34.3 	"/>
	<rect x="116.3" y="34.3" class="st0" width="0.6" height="5.8"/>
	<polygon class="st0" points="124.3,40.1 123.7,40.1 120,35.4 120,40.1 119.4,40.1 119.4,34.3 119.9,34.3 123.7,39.1 123.7,34.3 
		124.3,34.3 	"/>
	<path class="st0" d="M132.2,37.2v2.9h-0.5l-0.1-1.2c-0.4,0.8-1.2,1.3-2.2,1.3c-1.7,0-3-1.3-3-3c0-1.7,1.3-3,3-3
		c1.3,0,2.4,0.7,2.7,2h-0.6c-0.3-0.9-1.2-1.4-2.1-1.4c-1.4,0-2.4,1-2.4,2.5c0,1.3,1,2.4,2.4,2.4c1.2,0,2-0.9,2.2-2h-2.2v-0.6h2.8
		L132.2,37.2L132.2,37.2z"/>
	<path class="st0" d="M140.9,39l-1.2-1.1c-0.3-0.2-0.5-0.4-0.7-0.6c-0.6,0.2-1,0.6-1,1.2c0,0.7,0.6,1.2,1.5,1.2
		C140,39.7,140.5,39.5,140.9,39 M141.3,39.4c-0.5,0.5-1.1,0.8-1.9,0.8c-1.2,0-2-0.7-2-1.7c0-0.8,0.5-1.3,1.2-1.6
		c-0.4-0.4-0.6-0.8-0.6-1.2c0-0.9,0.7-1.5,1.7-1.5c0.9,0,1.5,0.6,1.6,1.5h-0.6c-0.1-0.7-0.5-1-1.1-1c-0.6,0-1,0.4-1,1
		c0,0.6,0.5,1.1,1.5,1.9l1.1,1l0.9-1.3h0.6l-1.1,1.6l0,0.1l1.3,1.1h-0.8L141.3,39.4z"/>
	<polygon class="st0" points="148.6,37 151.6,37 151.6,37.5 148.6,37.5 148.6,39.6 152,39.6 152,40.1 148,40.1 148,34.3 152,34.3 
		152,34.9 148.6,34.9 	"/>
	<polygon class="st0" points="156.7,40.1 156.1,40.1 153.4,34.3 154.1,34.3 156.4,39.3 158.7,34.3 159.3,34.3 	"/>
	<polygon class="st0" points="161.8,37 164.8,37 164.8,37.5 161.8,37.5 161.8,39.6 165.2,39.6 165.2,40.1 161.2,40.1 161.2,34.3 
		165.2,34.3 165.2,34.9 161.8,34.9 	"/>
	<polygon class="st0" points="172.3,40.1 171.7,40.1 168,35.4 168,40.1 167.4,40.1 167.4,34.3 167.9,34.3 171.7,39.1 171.7,34.3 
		172.3,34.3 	"/>
	<polygon class="st0" points="176.8,34.9 176.8,40.1 176.2,40.1 176.2,34.9 174.1,34.9 174.1,34.3 179,34.3 179,34.9 	"/>
	<polygon class="st0" points="0,0 0,54 1.6,54 1.6,1.6 38,1.6 38,54 39.6,54 39.6,0 	"/>
	<polygon class="st0" points="5.4,5.4 34.2,5.4 34.2,50.3 35.8,50.3 35.8,3.8 3.8,3.8 3.8,50.3 5.4,50.3 	"/>
	<polygon class="st0" points="9.2,9.2 30.4,9.2 30.4,46.6 32,46.6 32,7.6 7.6,7.6 7.6,46.6 9.2,46.6 	"/>
	<polygon class="st0" points="13,13 26.6,13 26.6,42.9 28.2,42.9 28.2,11.4 11.4,11.4 11.4,42.9 13,42.9 	"/>
	<polygon class="st0" points="16.8,16.8 22.8,16.8 22.8,39.3 24.4,39.3 24.4,15.2 15.2,15.2 15.2,39.3 16.8,39.3 	"/>
</g>
</svg>
